<svg width="37" height="36" viewBox="0 0 37 36" fill="none" xmlns="http://www.w3.org/2000/svg">
<path fill-rule="evenodd" clip-rule="evenodd" d="M5.50498 4.81101C5.70508 4.54105 6.01485 4.38281 6.34328 4.38281H35.9433C36.2717 4.38281 36.5815 4.54105 36.7816 4.81101C36.9817 5.08098 37.0494 5.43202 36.9647 5.76097L32.7362 22.1981C32.6128 22.6778 32.1936 23.0116 31.7147 23.0116H10.5719C10.0929 23.0116 9.67381 22.6778 9.55041 22.1981L5.32184 5.76097C5.23721 5.43202 5.30489 5.08098 5.50498 4.81101ZM7.71927 6.57443L11.384 20.8199H30.9025L34.5673 6.57443H7.71927Z" fill="#E0A24E"/>
<path fill-rule="evenodd" clip-rule="evenodd" d="M0 0H5.28571C5.7708 0 6.19364 0.342218 6.31129 0.830036L7.36843 5.21327L5.31728 5.74481L4.46032 2.19162H0V0Z" fill="#E0A24E"/>
<path fill-rule="evenodd" clip-rule="evenodd" d="M11.629 28.4904C10.4613 28.4904 9.51468 29.4717 9.51468 30.6821C9.51468 31.8925 10.4613 32.8737 11.629 32.8737C12.7966 32.8737 13.7432 31.8925 13.7432 30.6821C13.7432 29.4717 12.7966 28.4904 11.629 28.4904ZM7.40039 30.6821C7.40039 28.2613 9.29359 26.2988 11.629 26.2988C13.9643 26.2988 15.8575 28.2613 15.8575 30.6821C15.8575 33.1029 13.9643 35.0653 11.629 35.0653C9.29359 35.0653 7.40039 33.1029 7.40039 30.6821Z" fill="#E0A24E"/>
<path fill-rule="evenodd" clip-rule="evenodd" d="M30.6573 28.4904C29.4896 28.4904 28.543 29.4717 28.543 30.6821C28.543 31.8925 29.4896 32.8737 30.6573 32.8737C31.825 32.8737 32.7716 31.8925 32.7716 30.6821C32.7716 29.4717 31.825 28.4904 30.6573 28.4904ZM26.4287 30.6821C26.4287 28.2613 28.3219 26.2988 30.6573 26.2988C32.9927 26.2988 34.8859 28.2613 34.8859 30.6821C34.8859 33.1029 32.9927 35.0653 30.6573 35.0653C28.3219 35.0653 26.4287 33.1029 26.4287 30.6821Z" fill="#E0A24E"/>
</svg>
