<svg width="24" height="22" viewBox="0 0 24 22" fill="none" xmlns="http://www.w3.org/2000/svg">
<path fill-rule="evenodd" clip-rule="evenodd" d="M3.57164 3.01111C3.70143 2.84218 3.90236 2.74316 4.1154 2.74316H23.3152C23.5282 2.74316 23.7291 2.84218 23.8589 3.01111C23.9887 3.18005 24.0326 3.39971 23.9777 3.60555L21.2349 13.8911C21.1549 14.1913 20.883 14.4002 20.5723 14.4002H6.85822C6.54756 14.4002 6.27572 14.1913 6.19567 13.8911L3.45285 3.60555C3.39796 3.39971 3.44185 3.18005 3.57164 3.01111ZM5.00792 4.11458L7.38504 13.0288H20.0455L22.4226 4.11458H5.00792Z" fill="black"/>
<path fill-rule="evenodd" clip-rule="evenodd" d="M0 0H3.42853C3.74318 0 4.01745 0.214144 4.09376 0.519398L4.77947 3.26222L3.449 3.59484L2.89315 1.37141H0V0Z" fill="black"/>
<path fill-rule="evenodd" clip-rule="evenodd" d="M7.54361 17.8284C6.7862 17.8284 6.17219 18.4424 6.17219 19.1999C6.17219 19.9573 6.7862 20.5713 7.54361 20.5713C8.30102 20.5713 8.91502 19.9573 8.91502 19.1999C8.91502 18.4424 8.30102 17.8284 7.54361 17.8284ZM4.80078 19.1999C4.80078 17.685 6.02879 16.457 7.54361 16.457C9.05843 16.457 10.2864 17.685 10.2864 19.1999C10.2864 20.7147 9.05843 21.9427 7.54361 21.9427C6.02879 21.9427 4.80078 20.7147 4.80078 19.1999Z" fill="black"/>
<path fill-rule="evenodd" clip-rule="evenodd" d="M19.8854 17.8284C19.128 17.8284 18.514 18.4424 18.514 19.1999C18.514 19.9573 19.128 20.5713 19.8854 20.5713C20.6428 20.5713 21.2568 19.9573 21.2568 19.1999C21.2568 18.4424 20.6428 17.8284 19.8854 17.8284ZM17.1426 19.1999C17.1426 17.685 18.3706 16.457 19.8854 16.457C21.4002 16.457 22.6282 17.685 22.6282 19.1999C22.6282 20.7147 21.4002 21.9427 19.8854 21.9427C18.3706 21.9427 17.1426 20.7147 17.1426 19.1999Z" fill="black"/>
</svg>
