<svg width="20" height="20" viewBox="0 0 20 20" fill="none" xmlns="http://www.w3.org/2000/svg">
<path fill-rule="evenodd" clip-rule="evenodd" d="M2.83173 5.85596C2.83178 5.85602 2.83184 5.85609 2.54278 6.12164C2.25372 6.38719 2.25381 6.38729 2.25391 6.3874L2.25493 6.3885L2.25732 6.39109L2.26565 6.40003C2.27276 6.40763 2.28299 6.41848 2.29625 6.43237C2.32277 6.46014 2.36143 6.50007 2.41157 6.55042C2.51183 6.6511 2.65817 6.79358 2.84538 6.96394C3.21939 7.30429 3.75859 7.75781 4.4211 8.21179C5.73754 9.11388 7.58307 10.0469 9.6082 10.0469C11.6333 10.0469 13.4789 9.11388 14.7953 8.21179C15.4578 7.75781 15.997 7.30429 16.371 6.96394C16.5582 6.79358 16.7046 6.6511 16.8048 6.55042C16.855 6.50007 16.8936 6.46014 16.9202 6.43237C16.9334 6.41848 16.9436 6.40763 16.9508 6.40003L16.9591 6.39109L16.9615 6.3885L16.9622 6.38769C16.9623 6.38758 16.9627 6.38719 16.6736 6.12164C16.3846 5.85609 16.3846 5.85602 16.3847 5.85596L16.3834 5.85731L16.3776 5.86352L16.3523 5.89026C16.3294 5.91424 16.2946 5.9502 16.2486 5.99645C16.1564 6.08897 16.0194 6.22248 15.8427 6.38332C15.4888 6.70535 14.9779 7.135 14.3515 7.5642C13.0903 8.42847 11.4031 9.26183 9.6082 9.26183C7.8133 9.26183 6.12612 8.42847 4.86486 7.5642C4.23852 7.135 3.72762 6.70535 3.37375 6.38332C3.19701 6.22248 3.05996 6.08897 2.96782 5.99645C2.92176 5.9502 2.88696 5.91424 2.86407 5.89026L2.83877 5.86352L2.83298 5.85731L2.83173 5.85596Z" fill="white"/>
<path fill-rule="evenodd" clip-rule="evenodd" d="M9.99989 13.1875V9.65479H9.21484V13.1875H9.99989Z" fill="white"/>
<path fill-rule="evenodd" clip-rule="evenodd" d="M3.99847 11.502L6.35361 9.14681L5.7985 8.5917L3.44336 10.9468L3.99847 11.502Z" fill="white"/>
<path fill-rule="evenodd" clip-rule="evenodd" d="M15.2183 11.502L12.8632 9.14681L13.4183 8.5917L15.7734 10.9468L15.2183 11.502Z" fill="white"/>
</svg>
