<svg width="6" height="22" viewBox="0 0 6 22" fill="none" xmlns="http://www.w3.org/2000/svg">
<path fill-rule="evenodd" clip-rule="evenodd" d="M5.5 19.167C5.5 20.5477 4.38071 21.667 3 21.667C1.61929 21.667 0.5 20.5477 0.5 19.167C0.5 17.7863 1.61929 16.667 3 16.667C4.38071 16.667 5.5 17.7863 5.5 19.167Z" fill="white"/>
<path fill-rule="evenodd" clip-rule="evenodd" d="M5.5 10.833C5.5 12.2137 4.38071 13.333 3 13.333C1.61929 13.333 0.5 12.2137 0.5 10.833C0.5 9.4523 1.61929 8.33301 3 8.33301C4.38071 8.33301 5.5 9.4523 5.5 10.833Z" fill="white"/>
<path fill-rule="evenodd" clip-rule="evenodd" d="M5.5 2.5C5.5 3.88071 4.38071 5 3 5C1.61929 5 0.5 3.88071 0.5 2.5C0.5 1.11929 1.61929 -3.39263e-07 3 -2.18557e-07C4.38071 -9.78513e-08 5.5 1.11929 5.5 2.5Z" fill="white"/>
</svg>
