<svg width="18" height="16" viewBox="0 0 18 16" fill="none" xmlns="http://www.w3.org/2000/svg">
<path fill-rule="evenodd" clip-rule="evenodd" d="M1.38934 10.0286C1.50888 10.1485 1.66184 10.299 1.84328 10.4717C2.31856 10.924 2.98663 11.5262 3.75895 12.1273C4.53264 12.7295 5.40219 13.3236 6.28062 13.7655C7.16422 14.21 8.02393 14.4837 8.78658 14.4837C9.54923 14.4837 10.4089 14.21 11.2925 13.7655C12.171 13.3236 13.0405 12.7295 13.8142 12.1273C14.5865 11.5262 15.2546 10.924 15.7299 10.4717C15.9113 10.299 16.0643 10.1485 16.1838 10.0286C16.0643 9.90882 15.9113 9.75832 15.7299 9.58562C15.2546 9.13323 14.5865 8.53103 13.8142 7.92995C13.0405 7.32782 12.171 6.73371 11.2925 6.2918C10.4089 5.8473 9.54923 5.57362 8.78658 5.57362C8.02393 5.57362 7.16422 5.8473 6.28062 6.2918C5.40219 6.73371 4.53264 7.32782 3.75895 7.92995C2.98663 8.53103 2.31856 9.13323 1.84328 9.58562C1.66184 9.75832 1.50888 9.90882 1.38934 10.0286ZM16.8056 10.0286C17.1313 9.72464 17.1312 9.72456 17.1311 9.72447L17.13 9.72327L17.127 9.72012L17.1162 9.70863L17.0753 9.6656C17.0396 9.62831 16.9874 9.5742 16.9199 9.50566C16.7851 9.36861 16.5895 9.17371 16.3442 8.94024C15.8541 8.47378 15.1633 7.85086 14.3614 7.2268C13.5609 6.6038 12.641 5.97279 11.693 5.49585C10.7501 5.0215 9.74624 4.68262 8.78658 4.68262C7.82693 4.68262 6.82311 5.0215 5.8802 5.49585C4.93213 5.97279 4.01222 6.6038 3.21172 7.2268C2.40986 7.85086 1.71904 8.47378 1.22898 8.94024C0.983686 9.17371 0.788046 9.36861 0.653235 9.50566C0.585815 9.5742 0.533567 9.62831 0.497885 9.6656L0.456949 9.70863L0.446118 9.72012L0.443169 9.72327L0.442318 9.72418C0.442227 9.72428 0.441885 9.72464 0.767551 10.0286L0.442318 9.72418C0.282537 9.89535 0.282104 10.1615 0.441885 10.3326L0.767551 10.0286C0.441885 10.3326 0.441794 10.3325 0.441885 10.3326L0.443169 10.334L0.446118 10.3372L0.456949 10.3486L0.497885 10.3917C0.533567 10.429 0.585815 10.4831 0.653235 10.5516C0.788046 10.6887 0.983686 10.8836 1.22898 11.117C1.71904 11.5835 2.40986 12.2064 3.21172 12.8305C4.01222 13.4535 4.93213 14.0845 5.8802 14.5614C6.82311 15.0358 7.82693 15.3747 8.78658 15.3747C9.74624 15.3747 10.7501 15.0358 11.693 14.5614C12.641 14.0845 13.5609 13.4535 14.3614 12.8305C15.1633 12.2064 15.8541 11.5835 16.3442 11.117C16.5895 10.8836 16.7851 10.6887 16.9199 10.5516C16.9874 10.4831 17.0396 10.429 17.0753 10.3917L17.1162 10.3486L17.127 10.3372L17.13 10.334L17.1308 10.3331C17.1309 10.333 17.1313 10.3326 16.8056 10.0286ZM16.8056 10.0286L17.1308 10.3331C17.2906 10.1619 17.2909 9.89564 17.1311 9.72447L16.8056 10.0286Z" fill="white"/>
<path fill-rule="evenodd" clip-rule="evenodd" d="M8.78648 7.80116C7.55626 7.80116 6.55897 8.79845 6.55897 10.0287C6.55897 11.2589 7.55626 12.2562 8.78648 12.2562C10.0167 12.2562 11.014 11.2589 11.014 10.0287C11.014 8.79845 10.0167 7.80116 8.78648 7.80116ZM5.66797 10.0287C5.66797 8.30636 7.06417 6.91016 8.78648 6.91016C10.5088 6.91016 11.905 8.30636 11.905 10.0287C11.905 11.751 10.5088 13.1472 8.78648 13.1472C7.06417 13.1472 5.66797 11.751 5.66797 10.0287Z" fill="white"/>
<path fill-rule="evenodd" clip-rule="evenodd" d="M9.2328 0.672852V3.34586H8.3418V0.672852H9.2328Z" fill="white"/>
<path fill-rule="evenodd" clip-rule="evenodd" d="M1.52847 2.58496L3.31048 4.36697L2.68044 4.997L0.898438 3.215L1.52847 2.58496Z" fill="white"/>
<path fill-rule="evenodd" clip-rule="evenodd" d="M16.0457 2.58496L14.2637 4.36697L14.8938 4.997L16.6758 3.215L16.0457 2.58496Z" fill="white"/>
</svg>
