<svg width="511" height="21" viewBox="0 0 511 21" fill="none" xmlns="http://www.w3.org/2000/svg">
<path d="M249.792 20.252C248.336 20.252 247.02 19.9253 245.844 19.272C244.668 18.6 243.744 17.6667 243.072 16.472C242.4 15.2587 242.064 13.8587 242.064 12.272C242.064 10.704 242.409 9.31333 243.1 8.1C243.791 6.88667 244.733 5.95333 245.928 5.3C247.123 4.64667 248.457 4.32 249.932 4.32C251.407 4.32 252.741 4.64667 253.936 5.3C255.131 5.95333 256.073 6.88667 256.764 8.1C257.455 9.31333 257.8 10.704 257.8 12.272C257.8 13.84 257.445 15.2307 256.736 16.444C256.027 17.6573 255.056 18.6 253.824 19.272C252.611 19.9253 251.267 20.252 249.792 20.252ZM249.792 17.48C250.613 17.48 251.379 17.284 252.088 16.892C252.816 16.5 253.404 15.912 253.852 15.128C254.3 14.344 254.524 13.392 254.524 12.272C254.524 11.152 254.309 10.2093 253.88 9.444C253.451 8.66 252.881 8.072 252.172 7.68C251.463 7.288 250.697 7.092 249.876 7.092C249.055 7.092 248.289 7.288 247.58 7.68C246.889 8.072 246.339 8.66 245.928 9.444C245.517 10.2093 245.312 11.152 245.312 12.272C245.312 13.9333 245.732 15.2213 246.572 16.136C247.431 17.032 248.504 17.48 249.792 17.48ZM264.147 6.812C264.614 6.028 265.23 5.42133 265.995 4.992C266.779 4.544 267.703 4.32 268.767 4.32V7.624H267.955C266.705 7.624 265.753 7.94133 265.099 8.576C264.465 9.21067 264.147 10.312 264.147 11.88V20H260.955V4.572H264.147V6.812Z" fill="white"/>
<path d="M238 10.5L0 10.5" stroke="white" stroke-opacity="0.34"/>
<path d="M511 10.5L273 10.5" stroke="white" stroke-opacity="0.34"/>
</svg>
