<svg width="40" height="40" viewBox="0 0 40 40" fill="none" xmlns="http://www.w3.org/2000/svg">
<path fill-rule="evenodd" clip-rule="evenodd" d="M2.5 10.0007C2.5 7.69946 4.36548 5.83398 6.66667 5.83398H33.3333C35.6345 5.83398 37.5 7.69946 37.5 10.0007V30.0006C37.5 32.3018 35.6345 34.1673 33.3333 34.1673H6.66667C4.36548 34.1673 2.5 32.3018 2.5 30.0006V10.0007ZM6.66667 7.50065C5.28595 7.50065 4.16667 8.61994 4.16667 10.0007V30.0006C4.16667 31.3814 5.28596 32.5006 6.66667 32.5006H33.3333C34.714 32.5006 35.8333 31.3814 35.8333 30.0006V10.0007C35.8333 8.61994 34.714 7.50065 33.3333 7.50065H6.66667Z" fill="#A3A3A3"/>
<path fill-rule="evenodd" clip-rule="evenodd" d="M28.3327 12.5007C26.952 12.5007 25.8327 13.6199 25.8327 15.0007C25.8327 16.3814 26.952 17.5007 28.3327 17.5007C29.7134 17.5007 30.8327 16.3814 30.8327 15.0007C30.8327 13.6199 29.7134 12.5007 28.3327 12.5007ZM24.166 15.0007C24.166 12.6995 26.0315 10.834 28.3327 10.834C30.6339 10.834 32.4993 12.6995 32.4993 15.0007C32.4993 17.3018 30.6339 19.1673 28.3327 19.1673C26.0315 19.1673 24.166 17.3018 24.166 15.0007Z" fill="#A3A3A3"/>
<path fill-rule="evenodd" clip-rule="evenodd" d="M12.7441 17.7441C12.9718 17.5164 13.3103 17.4403 13.6136 17.5486L36.9469 25.8819C37.2786 26.0004 37.5 26.3145 37.5 26.6667V30C37.5 32.3012 35.6345 34.1667 33.3333 34.1667H6.66667C4.36548 34.1667 2.5 32.3012 2.5 30V28.3334C2.5 28.1123 2.5878 27.9004 2.74408 27.7441L12.7441 17.7441ZM13.5497 19.2955L4.16667 28.6785V30C4.16667 31.3807 5.28595 32.5 6.66667 32.5H33.3333C34.714 32.5 35.8333 31.3807 35.8333 30V27.254L13.5497 19.2955Z" fill="#A3A3A3"/>
</svg>
