<svg width="36" height="36" viewBox="0 0 36 36" fill="none" xmlns="http://www.w3.org/2000/svg">
<circle cx="18" cy="18" r="18" fill="#AD1C23"/>
<path fill-rule="evenodd" clip-rule="evenodd" d="M11.0792 11.4383C11.1882 11.2913 11.3569 11.2051 11.5358 11.2051H27.6605C27.8394 11.2051 28.0082 11.2913 28.1172 11.4383C28.2262 11.5854 28.2631 11.7766 28.217 11.9558L25.9134 20.91C25.8462 21.1713 25.6179 21.3531 25.357 21.3531H13.8394C13.5785 21.3531 13.3502 21.1713 13.2829 20.91L10.9794 11.9558C10.9333 11.7766 10.9702 11.5854 11.0792 11.4383ZM12.2854 12.399L14.2818 20.1592H24.9146L26.9109 12.399H12.2854Z" fill="white"/>
<path fill-rule="evenodd" clip-rule="evenodd" d="M8.08105 8.81738H10.9605C11.2247 8.81738 11.4551 9.00381 11.5191 9.26955L12.095 11.6573L10.9777 11.9469L10.5108 10.0113H8.08105V8.81738Z" fill="white"/>
<path fill-rule="evenodd" clip-rule="evenodd" d="M14.4158 24.3374C13.7797 24.3374 13.2641 24.872 13.2641 25.5313C13.2641 26.1907 13.7797 26.7252 14.4158 26.7252C15.0519 26.7252 15.5676 26.1907 15.5676 25.5313C15.5676 24.872 15.0519 24.3374 14.4158 24.3374ZM12.1123 25.5313C12.1123 24.2126 13.1436 23.1436 14.4158 23.1436C15.688 23.1436 16.7194 24.2126 16.7194 25.5313C16.7194 26.8501 15.688 27.9191 14.4158 27.9191C13.1436 27.9191 12.1123 26.8501 12.1123 25.5313Z" fill="white"/>
<path fill-rule="evenodd" clip-rule="evenodd" d="M24.7811 24.3374C24.145 24.3374 23.6293 24.872 23.6293 25.5313C23.6293 26.1907 24.145 26.7252 24.7811 26.7252C25.4172 26.7252 25.9328 26.1907 25.9328 25.5313C25.9328 24.872 25.4172 24.3374 24.7811 24.3374ZM22.4775 25.5313C22.4775 24.2126 23.5089 23.1436 24.7811 23.1436C26.0533 23.1436 27.0846 24.2126 27.0846 25.5313C27.0846 26.8501 26.0533 27.9191 24.7811 27.9191C23.5089 27.9191 22.4775 26.8501 22.4775 25.5313Z" fill="white"/>
</svg>
