<svg width="64" height="64" viewBox="0 0 64 64" fill="none" xmlns="http://www.w3.org/2000/svg">
<circle cx="32" cy="32" r="32" fill="#AD1C23"/>
<path fill-rule="evenodd" clip-rule="evenodd" d="M23.4069 26.3513C23.5172 26.2331 23.6717 26.166 23.8333 26.166H40.1667C40.3284 26.166 40.4828 26.2331 40.5931 26.3513C40.7034 26.4695 40.7597 26.6282 40.7486 26.7895L39.582 43.7062C39.5609 44.012 39.3066 44.2493 39 44.2493H25C24.6934 44.2493 24.4391 44.012 24.4181 43.7062L23.2514 26.7895C23.2403 26.6282 23.2966 26.4695 23.4069 26.3513ZM24.4583 27.3327L25.5445 43.0827H38.4555L39.5417 27.3327H24.4583Z" fill="white"/>
<path fill-rule="evenodd" clip-rule="evenodd" d="M43.6663 24.4167H20.333V23.25H43.6663V24.4167Z" fill="white"/>
<path fill-rule="evenodd" clip-rule="evenodd" d="M31.416 40.166V29.666H32.5827V40.166H31.416Z" fill="white"/>
<path fill-rule="evenodd" clip-rule="evenodd" d="M27.9173 40.1995L27.334 29.6995L28.4989 29.6348L29.0822 40.1348L27.9173 40.1995Z" fill="white"/>
<path fill-rule="evenodd" clip-rule="evenodd" d="M36.0817 40.1995L36.665 29.6995L35.5002 29.6348L34.9168 40.1348L36.0817 40.1995Z" fill="white"/>
<path fill-rule="evenodd" clip-rule="evenodd" d="M24.416 22.6667C24.416 21.0558 25.7219 19.75 27.3327 19.75H36.666C38.2768 19.75 39.5827 21.0558 39.5827 22.6667V23.8333C39.5827 24.1555 39.3215 24.4167 38.9993 24.4167H24.9993C24.6772 24.4167 24.416 24.1555 24.416 23.8333V22.6667ZM27.3327 20.9167C26.3662 20.9167 25.5827 21.7002 25.5827 22.6667V23.25H38.416V22.6667C38.416 21.7002 37.6325 20.9167 36.666 20.9167H27.3327Z" fill="white"/>
</svg>
